<svg id="svg-source" height="0" version="1.1" 
  xmlns="http://www.w3.org/2000/svg" style="position:absolute; margin-left: -100%" 
  xmlns:xlink="http://www.w3.org/1999/xlink">
  <g id="twitter" data-iconmelon="Flat Social Icons Multicolor:7bea12547295ed9029c6fcbbd9244435">
    <g>
      <path fill="#28AAE2" d="M16,32c8.837,0,16-7.163,16-16c0-8.836-7.163-16-16-16C7.164,0,0,7.164,0,16C0,24.837,7.164,32,16,32"></path>
      <path fill="#FFFFFF" d="M24.014,11.809c-0.59,0.261-1.224,0.438-1.889,0.518c0.68-0.407,1.202-1.051,1.446-1.818
		c-0.636,0.376-1.339,0.65-2.09,0.797c-0.598-0.639-1.453-1.038-2.399-1.038c-1.815,0-3.287,1.473-3.287,3.288
		c0,0.258,0.027,0.508,0.085,0.749c-2.732-0.137-5.155-1.445-6.778-3.436c-0.283,0.487-0.444,1.052-0.444,1.655
		c0,1.14,0.58,2.146,1.462,2.737c-0.538-0.017-1.045-0.166-1.49-0.411v0.041c0,1.594,1.134,2.922,2.639,3.224
		c-0.275,0.077-0.565,0.116-0.866,0.116c-0.212,0-0.418-0.02-0.618-0.059c0.418,1.306,1.632,2.257,3.071,2.282
		c-1.126,0.883-2.544,1.408-4.084,1.408c-0.265,0-0.527-0.015-0.784-0.045c1.455,0.932,3.184,1.477,5.04,1.477
		c6.05,0,9.355-5.009,9.355-9.355c0-0.143-0.003-0.285-0.009-0.425C23.016,13.047,23.575,12.468,24.014,11.809"></path>
    </g>
  </g>
  <g id="facebook" data-iconmelon="Flat Social Icons Multicolor:38ae6a9229521dad4b32606188a9dc31">
    <g>
      <path fill="#35679A" d="M16,32c8.836,0,16-7.163,16-16c0-8.836-7.164-16-16-16S0,7.164,0,16C0,24.837,7.163,32,16,32"></path>
      <path fill="#FFFFFF" d="M12.14,13.291h1.654v-1.608c0-0.708,0.018-1.802,0.533-2.479C14.869,8.487,15.614,8,16.895,8
		c2.087,0,2.965,0.298,2.965,0.298l-0.414,2.451c0,0-0.689-0.2-1.332-0.2c-0.644,0-1.22,0.231-1.22,0.874v1.869h2.638l-0.184,2.394
		h-2.454V24h-3.101v-8.315H12.14V13.291z"></path>
    </g>
  </g>
  <g id="flickr" data-iconmelon="Flat Social Icons Multicolor:210710e2c808e53cdbc8b6e0a4bd3b35">
    <g>
      <path fill="#FFFFFF" d="M16.001,31.999C24.836,31.999,32,24.836,32,16S24.836,0.001,16.001,0.001C7.164,0.001,0,7.164,0,16
		S7.164,31.999,16.001,31.999"></path>
      <circle fill="#E8328A" cx="20.476" cy="16" r="3.524"></circle>
      <path fill="#2864AE" d="M15.048,16c0,1.945-1.576,3.523-3.525,3.523C9.577,19.523,8,17.945,8,16s1.577-3.523,3.522-3.523
		C13.472,12.477,15.048,14.055,15.048,16z"></path>
    </g>
  </g>
</svg>