<?xml-stylesheet type="text/css" href="svg.css" ?>
<svg version="1.1" xmlns="http://www.w3.org/2000/svg" xmlns:xlink="http://www.w3.org/1999/xlink" x="0px" y="0px"
	 viewBox="0 0 60 60" enable-background="new 0 0 60 60" xml:space="preserve">
<g id="i-sanitasi">
	<g>
		<polygon class="secondary" points="35,18 35,17 31,17 31,23 35,23 35,22 46,22 42,18 		"/>
		<path class="primary" d="M29,17h-4v1h-1c-3.86,0-7,3.14-7,7s3.14,7,7,7L36,32c1.654,0,3,1.346,3,3s-1.346,3-3,3h-1v-1h-4v6h4v-1h1
			c3.86,0,7-3.141,7-7s-3.14-7-7-7l-12,0c-1.654,0-3-1.346-3-3s1.346-3,3-3h1v1h4V17z"/>
		<polygon class="secondary" points="29,37 25,37 25,38 14,38 18,42 25,42 25,43 29,43 		"/>
	</g>
</g>
</svg>
