<?xml version="1.0" encoding="utf-8"?>
<!-- Generator: Adobe Illustrator 18.1.0, SVG Export Plug-In . SVG Version: 6.00 Build 0)  -->
<!DOCTYPE svg PUBLIC "-//W3C//DTD SVG 1.1//EN" "http://www.w3.org/Graphics/SVG/1.1/DTD/svg11.dtd">
<svg version="1.1" xmlns="http://www.w3.org/2000/svg" xmlns:xlink="http://www.w3.org/1999/xlink" x="0px" y="0px"
	 viewBox="0 0 60 60" enable-background="new 0 0 60 60" xml:space="preserve">
<g id="base" display="none">
	<g display="inline">
		<g>
			<line fill="none" stroke="#808080" stroke-width="2" stroke-miterlimit="10" x1="10" y1="30" x2="13" y2="30"/>
			
				<line fill="none" stroke="#808080" stroke-width="2" stroke-miterlimit="10" stroke-dasharray="4.5,2.25" x1="15.25" y1="30" x2="20.875" y2="30"/>
			<line fill="none" stroke="#808080" stroke-width="2" stroke-miterlimit="10" x1="22" y1="30" x2="25" y2="30"/>
		</g>
	</g>
	<g display="inline">
		<g>
			<line fill="none" stroke="#808080" stroke-width="2" stroke-miterlimit="10" x1="50" y1="30" x2="47" y2="30"/>
			
				<line fill="none" stroke="#808080" stroke-width="2" stroke-miterlimit="10" stroke-dasharray="4.5,2.25" x1="44.75" y1="30" x2="39.125" y2="30"/>
			<line fill="none" stroke="#808080" stroke-width="2" stroke-miterlimit="10" x1="38" y1="30" x2="35" y2="30"/>
		</g>
	</g>
	<g display="inline">
		<g>
			<line fill="none" stroke="#808080" stroke-width="2" stroke-miterlimit="10" x1="30" y1="50" x2="30" y2="47"/>
			
				<line fill="none" stroke="#808080" stroke-width="2" stroke-miterlimit="10" stroke-dasharray="4.5,2.25" x1="30" y1="44.75" x2="30" y2="39.125"/>
			<line fill="none" stroke="#808080" stroke-width="2" stroke-miterlimit="10" x1="30" y1="38" x2="30" y2="35"/>
		</g>
	</g>
	<g display="inline">
		<g>
			<line fill="none" stroke="#808080" stroke-width="2" stroke-miterlimit="10" x1="30" y1="25" x2="30" y2="22"/>
			
				<line fill="none" stroke="#808080" stroke-width="2" stroke-miterlimit="10" stroke-dasharray="4.5,2.25" x1="30" y1="19.75" x2="30" y2="14.125"/>
			<line fill="none" stroke="#808080" stroke-width="2" stroke-miterlimit="10" x1="30" y1="13" x2="30" y2="10"/>
		</g>
	</g>
	
		<rect x="25" y="25" display="inline" fill="none" stroke="#808080" stroke-width="2" stroke-miterlimit="10" width="10" height="10"/>
	<polyline display="inline" fill="none" stroke="#000000" stroke-width="2" stroke-miterlimit="10" points="10,25 25,25 25,10 	"/>
	<polyline display="inline" fill="none" stroke="#000000" stroke-width="2" stroke-miterlimit="10" points="35,10 35,25 50,25 	"/>
	<polyline display="inline" fill="none" stroke="#000000" stroke-width="2" stroke-miterlimit="10" points="50,35 35,35 35,50 	"/>
	<polyline display="inline" fill="none" stroke="#000000" stroke-width="2" stroke-miterlimit="10" points="25,50 25,35 10,35 	"/>
</g>
<g id="export">
	<g>
		<path fill="#808080" d="M10,29h3v2h-3V29z M15.25,31h4.5v-2h-4.5V31z M24,26v3h-2v2h2v3h2v-8H24z M47,29v2h3v-2H47z M40.25,31h4.5
			v-2h-4.5V31z M36,26h-2v8h2v-3h2v-2h-2V26z M29,50h2v-3h-2V50z M29,44.75h2v-4.5h-2V44.75z M26,34v2h3v2h2v-2h3v-2H26z M31,15.25
			h-2v4.5h2V15.25z M31,10h-2v3h2V10z M31,24v-2h-2v2h-3v2h8v-2H31z"/>
		<g>
			<polygon points="24,24 10,24 10,26 24,26 26,26 26,24 26,10 24,10 			"/>
			<polygon points="36,24 36,10 34,10 34,24 34,26 36,26 50,26 50,24 			"/>
			<polygon points="34,34 34,36 34,50 36,50 36,36 50,36 50,34 36,34 			"/>
			<polygon points="10,34 10,36 24,36 24,50 26,50 26,36 26,34 24,34 			"/>
		</g>
	</g>
</g>
<g id="Layer_2" display="none">
</g>
</svg>
