<?xml version="1.0" encoding="utf-8"?>
<!-- Generator: Adobe Illustrator 18.1.0, SVG Export Plug-In . SVG Version: 6.00 Build 0)  -->
<!DOCTYPE svg PUBLIC "-//W3C//DTD SVG 1.1//EN" "http://www.w3.org/Graphics/SVG/1.1/DTD/svg11.dtd">
<svg version="1.1" xmlns="http://www.w3.org/2000/svg" xmlns:xlink="http://www.w3.org/1999/xlink" x="0px" y="0px"
	 viewBox="0 0 60 60" enable-background="new 0 0 60 60" xml:space="preserve">
<g id="V1_x5F_base" display="none">
	<polyline display="inline" fill="none" stroke="#808080" stroke-width="2" stroke-miterlimit="10" points="21,51 26,24 34,24 
		39,51 	"/>
	<line display="inline" fill="none" stroke="#808080" stroke-width="2" stroke-miterlimit="10" x1="30" y1="24" x2="30" y2="19"/>
	<circle display="inline" fill="none" stroke="#808080" stroke-width="2" stroke-miterlimit="10" cx="30" cy="17" r="2"/>
	<line display="inline" fill="none" stroke="#000000" stroke-width="2" stroke-miterlimit="10" x1="35" y1="17" x2="39" y2="17"/>
	
		<line display="inline" fill="none" stroke="#000000" stroke-width="2" stroke-miterlimit="10" x1="33.536" y1="13.464" x2="36.364" y2="10.636"/>
	<line display="inline" fill="none" stroke="#000000" stroke-width="2" stroke-miterlimit="10" x1="30" y1="12" x2="30" y2="8"/>
	
		<line display="inline" fill="none" stroke="#000000" stroke-width="2" stroke-miterlimit="10" x1="26.464" y1="13.464" x2="23.636" y2="10.636"/>
	<line display="inline" fill="none" stroke="#000000" stroke-width="2" stroke-miterlimit="10" x1="25" y1="17" x2="21" y2="17"/>
	
		<polyline display="inline" fill="none" stroke="#808080" stroke-width="2" stroke-linecap="round" stroke-linejoin="round" stroke-miterlimit="10" points="
		23,44 37,44 25,34 35,34 26,24 	"/>
	<line display="inline" fill="none" stroke="#000000" stroke-width="2" stroke-miterlimit="10" x1="10" y1="51" x2="50" y2="51"/>
</g>
<g id="V1_x5F_export" display="none">
	<path display="inline" fill="#808080" d="M25.168,23l-5,27h2.034l0.926-5h13.744l0.926,5h2.034l-5-27H31v-3.184
		c1.161-0.414,2-1.514,2-2.816c0-1.654-1.346-3-3-3s-3,1.346-3,3c0,1.302,0.839,2.402,2,2.816V23H25.168z M26.614,26.177L32.755,33
		h-7.404L26.614,26.177z M23.499,43l1.436-7.753L34.238,43H23.499z M35,35c0.007,0,0.013-0.003,0.019-0.003l1.325,7.155L27.762,35
		H35z M30,16c0.551,0,1,0.449,1,1s-0.449,1-1,1s-1-0.449-1-1S29.449,16,30,16z M33.168,25l1.275,6.887L28.245,25H33.168z"/>
	<path display="inline" d="M39,18h-4v-2h4V18z M37.071,11.343l-1.414-1.414l-2.828,2.828l1.414,1.414L37.071,11.343z M31,8h-2v4h2V8
		z M27.171,12.757l-2.828-2.828l-1.414,1.414l2.828,2.828L27.171,12.757z M25,16h-4v2h4V16z M50,50H10v2h40V50z"/>
</g>
<g id="V2_x5F_base" display="none">
	<circle display="inline" fill="none" stroke="#808080" stroke-width="4" stroke-miterlimit="10" cx="30" cy="30" r="10"/>
	<circle display="inline" fill="none" stroke="#808080" stroke-width="4" stroke-miterlimit="10" cx="30" cy="30" r="17"/>
	
		<rect x="17" y="-1.385" transform="matrix(0.7071 -0.7071 0.7071 0.7071 0.5736 24.6152)" display="inline" fill="#FFFFFF" width="26" height="26"/>
	
		<rect x="17" y="35.385" transform="matrix(-0.7071 0.7071 -0.7071 -0.7071 85.4264 61.3848)" display="inline" fill="#FFFFFF" width="26" height="26"/>
	<circle display="inline" cx="30" cy="30" r="4"/>
</g>
<g id="V2_x5F_export">
	<path fill="#808080" d="M24.346,35.654l-2.827,2.827C19.346,36.308,18,33.308,18,30s1.346-6.308,3.519-8.481l2.827,2.827
		C22.897,25.794,22,27.794,22,30S22.897,34.206,24.346,35.654z M38,30c0,2.206-0.897,4.206-2.346,5.654l2.827,2.827
		C40.654,36.308,42,33.308,42,30s-1.346-6.308-3.519-8.481l-2.827,2.827C37.103,25.794,38,27.794,38,30z M15,30
		c0-4.135,1.682-7.885,4.398-10.602l-2.827-2.827C13.131,20.012,11,24.762,11,30s2.131,9.988,5.571,13.429l2.827-2.827
		C16.682,37.885,15,34.135,15,30z M45,30c0,4.135-1.682,7.885-4.398,10.602l2.827,2.827C46.869,39.988,49,35.238,49,30
		s-2.131-9.988-5.571-13.429l-2.827,2.827C43.318,22.115,45,25.865,45,30z"/>
	<path d="M32.828,27.172C32.105,26.448,31.105,26,30,26c-1.105,0-2.105,0.448-2.828,1.172C26.448,27.895,26,28.895,26,30
		c0,1.105,0.448,2.105,1.172,2.828C27.895,33.552,28.895,34,30,34c1.105,0,2.105-0.448,2.828-1.172C33.552,32.105,34,31.105,34,30
		C34,28.895,33.552,27.895,32.828,27.172z"/>
</g>
<g id="labels">
</g>
<g id="Layer_2" display="none">
</g>
</svg>
