<?xml version="1.0" encoding="utf-8"?>
<!-- Generator: Adobe Illustrator 18.1.0, SVG Export Plug-In . SVG Version: 6.00 Build 0)  -->
<!DOCTYPE svg PUBLIC "-//W3C//DTD SVG 1.1//EN" "http://www.w3.org/Graphics/SVG/1.1/DTD/svg11.dtd">
<svg version="1.1" xmlns="http://www.w3.org/2000/svg" xmlns:xlink="http://www.w3.org/1999/xlink" x="0px" y="0px"
	 viewBox="0 0 60 60" enable-background="new 0 0 60 60" xml:space="preserve">
<g id="base" display="none">
	<polyline display="inline" fill="none" stroke="#808080" stroke-width="2" stroke-miterlimit="10" points="21,51 26,24 34,24 
		39,51 	"/>
	<line display="inline" fill="none" stroke="#808080" stroke-width="2" stroke-miterlimit="10" x1="30" y1="24" x2="30" y2="19"/>
	<circle display="inline" fill="none" stroke="#808080" stroke-width="2" stroke-miterlimit="10" cx="30" cy="17" r="2"/>
	<line display="inline" fill="none" stroke="#000000" stroke-width="2" stroke-miterlimit="10" x1="35" y1="17" x2="39" y2="17"/>
	
		<line display="inline" fill="none" stroke="#000000" stroke-width="2" stroke-miterlimit="10" x1="33.536" y1="13.464" x2="36.364" y2="10.636"/>
	<line display="inline" fill="none" stroke="#000000" stroke-width="2" stroke-miterlimit="10" x1="30" y1="12" x2="30" y2="8"/>
	
		<line display="inline" fill="none" stroke="#000000" stroke-width="2" stroke-miterlimit="10" x1="26.464" y1="13.464" x2="23.636" y2="10.636"/>
	<line display="inline" fill="none" stroke="#000000" stroke-width="2" stroke-miterlimit="10" x1="25" y1="17" x2="21" y2="17"/>
	
		<polyline display="inline" fill="none" stroke="#808080" stroke-width="2" stroke-linecap="round" stroke-linejoin="round" stroke-miterlimit="10" points="
		23,44 37,44 25,34 35,34 26,24 	"/>
	<line display="inline" fill="none" stroke="#000000" stroke-width="2" stroke-miterlimit="10" x1="10" y1="51" x2="50" y2="51"/>
</g>
<g id="export">
	<path fill="#808080" d="M25.168,23l-5,27h2.034l0.926-5h13.744l0.926,5h2.034l-5-27H31v-3.184c1.161-0.414,2-1.514,2-2.816
		c0-1.654-1.346-3-3-3s-3,1.346-3,3c0,1.302,0.839,2.402,2,2.816V23H25.168z M26.614,26.177L32.755,33h-7.404L26.614,26.177z
		 M23.499,43l1.436-7.753L34.238,43H23.499z M35,35c0.007,0,0.013-0.003,0.019-0.003l1.325,7.155L27.762,35H35z M30,16
		c0.551,0,1,0.449,1,1s-0.449,1-1,1s-1-0.449-1-1S29.449,16,30,16z M33.168,25l1.275,6.887L28.245,25H33.168z"/>
	<path d="M39,18h-4v-2h4V18z M37.071,11.343l-1.414-1.414l-2.828,2.828l1.414,1.414L37.071,11.343z M31,8h-2v4h2V8z M27.171,12.757
		l-2.828-2.828l-1.414,1.414l2.828,2.828L27.171,12.757z M25,16h-4v2h4V16z M50,50H10v2h40V50z"/>
</g>
<g id="Layer_2">
</g>
</svg>
