<?xml-stylesheet type="text/css" href="svg.css" ?>
<svg version="1.1" xmlns="http://www.w3.org/2000/svg" xmlns:xlink="http://www.w3.org/1999/xlink" x="0px" y="0px"
	 viewBox="0 0 60 60" enable-background="new 0 0 60 60" xml:space="preserve">
<g id="i-sampah">
	<path class="secondary" d="M33.563,13.887c-0.508,0-0.998,0.074-1.466,0.202c-1.211-0.977-2.726-1.539-4.324-1.539c-3.805,0-6.899,3.095-6.899,6.899
		h4c0-1.599,1.301-2.899,2.899-2.899c0.328,0,0.641,0.074,0.943,0.178C28.262,17.534,28,18.461,28,19.45h4
		c0-0.862,0.701-1.563,1.563-1.563c0.861,0,1.562,0.701,1.562,1.563h4C39.126,16.382,36.631,13.887,33.563,13.887z"/>
	<path class="primary" d="M40.533,18.085l-0.253,1.364H19.719l-0.253-1.364l-3.934,0.729l5.303,28.635h18.328l5.303-28.635
		L40.533,18.085z M39.54,23.45l-0.741,4H21.201l-0.741-4H39.54z M21.942,31.449h16.117l-0.741,4H22.682L21.942,31.449z
		 M24.164,43.449l-0.741-4h13.153l-0.741,4H24.164z"/>
</g>
</svg>
