<?xml version="1.0" encoding="utf-8"?>
<!-- Generator: Adobe Illustrator 18.1.0, SVG Export Plug-In . SVG Version: 6.00 Build 0)  -->
<!DOCTYPE svg PUBLIC "-//W3C//DTD SVG 1.1//EN" "http://www.w3.org/Graphics/SVG/1.1/DTD/svg11.dtd">
<svg version="1.1" xmlns="http://www.w3.org/2000/svg" xmlns:xlink="http://www.w3.org/1999/xlink" x="0px" y="0px"
	 viewBox="0 0 60 60" enable-background="new 0 0 60 60" xml:space="preserve">
<g id="V2_x5F_export">
	<g>
		<path fill="#808080" d="M27.5,25h-4V11h11v14h-4V15h-3V25z M40.5,15h3v30h4V11h-11v14h4V15z M18.5,36h4v-5h-4V36z M24.5,36h4v-5
			h-4V36z M30.5,36h4v-5h-4V36z M18.5,42.75h4v-5h-4V42.75z M24.5,42.75h4v-5h-4V42.75z M30.5,42.75h4v-5h-4V42.75z"/>
		<path d="M47.5,45h-4h-3V27v-2h-4h-2h-4h-3h-4h-11v20H9.438v4H50v-4H47.5z M16.5,29h7h11h2v16h-20V29z"/>
	</g>
</g>
</svg>
