<?xml version="1.0" encoding="utf-8"?>
<!-- Generator: Adobe Illustrator 18.1.0, SVG Export Plug-In . SVG Version: 6.00 Build 0)  -->
<!DOCTYPE svg PUBLIC "-//W3C//DTD SVG 1.1//EN" "http://www.w3.org/Graphics/SVG/1.1/DTD/svg11.dtd">
<svg version="1.1" xmlns="http://www.w3.org/2000/svg" xmlns:xlink="http://www.w3.org/1999/xlink" x="0px" y="0px"
	 viewBox="0 0 60 60" enable-background="new 0 0 60 60" xml:space="preserve">
<g id="V2_x5F_export">
	<path fill="#808080" d="M24.346,35.654l-2.827,2.827C19.346,36.308,18,33.308,18,30s1.346-6.308,3.519-8.481l2.827,2.827
		C22.897,25.794,22,27.794,22,30S22.897,34.206,24.346,35.654z M38,30c0,2.206-0.897,4.206-2.346,5.654l2.827,2.827
		C40.654,36.308,42,33.308,42,30s-1.346-6.308-3.519-8.481l-2.827,2.827C37.103,25.794,38,27.794,38,30z M15,30
		c0-4.135,1.682-7.885,4.398-10.602l-2.827-2.827C13.131,20.012,11,24.762,11,30s2.131,9.988,5.571,13.429l2.827-2.827
		C16.682,37.885,15,34.135,15,30z M45,30c0,4.135-1.682,7.885-4.398,10.602l2.827,2.827C46.869,39.988,49,35.238,49,30
		s-2.131-9.988-5.571-13.429l-2.827,2.827C43.318,22.115,45,25.865,45,30z"/>
	<path d="M32.828,27.172C32.105,26.448,31.105,26,30,26c-1.105,0-2.105,0.448-2.828,1.172C26.448,27.895,26,28.895,26,30
		c0,1.105,0.448,2.105,1.172,2.828C27.895,33.552,28.895,34,30,34c1.105,0,2.105-0.448,2.828-1.172C33.552,32.105,34,31.105,34,30
		C34,28.895,33.552,27.895,32.828,27.172z"/>
</g>
</svg>
