<?xml version="1.0" encoding="utf-8"?>
<!-- Generator: Adobe Illustrator 18.1.0, SVG Export Plug-In . SVG Version: 6.00 Build 0)  -->
<!DOCTYPE svg PUBLIC "-//W3C//DTD SVG 1.1//EN" "http://www.w3.org/Graphics/SVG/1.1/DTD/svg11.dtd">
<svg version="1.1" xmlns="http://www.w3.org/2000/svg" xmlns:xlink="http://www.w3.org/1999/xlink" x="0px" y="0px"
	 viewBox="0 0 60 60" enable-background="new 0 0 60 60" xml:space="preserve">
<g id="Layer_1" display="none">
	<polyline display="inline" fill="none" stroke="#000000" stroke-width="2" stroke-miterlimit="10" points="25,25 25,15 10,15 	"/>
	<polyline display="inline" fill="none" stroke="#000000" stroke-width="2" stroke-miterlimit="10" points="50,15 35,15 35,25 	"/>
	<g display="inline">
		<path fill="none" stroke="#808080" stroke-width="2" stroke-miterlimit="10" d="M60,20l-5.757,5.757
			c-2.333,2.333-6.152,2.333-8.485,0l-1.515-1.515c-2.333-2.333-6.152-2.333-8.485,0l-1.515,1.515c-2.333,2.333-6.152,2.333-8.485,0
			l-1.515-1.515c-2.333-2.333-6.152-2.333-8.485,0l-1.515,1.515c-2.333,2.333-6.152,2.333-8.485,0L0,20"/>
	</g>
	<g display="inline">
		<path fill="none" stroke="#808080" stroke-width="2" stroke-miterlimit="10" d="M60,28.5l-5.757,5.757
			c-2.333,2.333-6.152,2.333-8.485,0l-1.515-1.515c-2.333-2.333-6.152-2.333-8.485,0l-1.515,1.515c-2.333,2.333-6.152,2.333-8.485,0
			l-1.515-1.515c-2.333-2.333-6.152-2.333-8.485,0l-1.515,1.515c-2.333,2.333-6.152,2.333-8.485,0L0,28.5"/>
	</g>
	<g display="inline">
		<path fill="none" stroke="#808080" stroke-width="2" stroke-miterlimit="10" d="M60,37l-5.757,5.757
			c-2.333,2.333-6.152,2.333-8.485,0l-1.515-1.515c-2.333-2.333-6.152-2.333-8.485,0l-1.515,1.515c-2.333,2.333-6.152,2.333-8.485,0
			l-1.515-1.515c-2.333-2.333-6.152-2.333-8.485,0l-1.515,1.515c-2.333,2.333-6.152,2.333-8.485,0L0,37"/>
	</g>
</g>
<g id="Layer_3">
	<path d="M24,16H10v-2h16v10.585l-1.051-1.05c-0.295-0.295-0.614-0.555-0.949-0.789V16z M34,14v10.586l1.051-1.05
		c0.295-0.294,0.614-0.555,0.949-0.788V16h14v-2H34z"/>
	<path fill="#808080" d="M14.949,34.965c-1.364,1.364-3.157,2.046-4.949,2.046v-1.999c1.28,0,2.561-0.487,3.535-1.462l1.516-1.516
		c2.729-2.729,7.17-2.729,9.898,0l1.516,1.516c1.949,1.949,5.121,1.949,7.07,0l1.516-1.516c2.729-2.729,7.17-2.729,9.898,0
		l1.516,1.516c0.975,0.975,2.255,1.462,3.535,1.462v1.999c-1.792,0-3.585-0.683-4.949-2.047l-1.516-1.516
		c-1.949-1.949-5.121-1.949-7.07,0l-1.516,1.516c-2.729,2.729-7.17,2.729-9.898,0l-1.516-1.516c-1.949-1.949-5.121-1.949-7.07,0
		L14.949,34.965z M10,28.507c1.874,0,3.632-0.726,4.949-2.042l1.516-1.515c0.939-0.939,2.195-1.457,3.535-1.457
		s2.596,0.518,3.535,1.458l1.516,1.514c1.317,1.317,3.075,2.043,4.949,2.043s3.632-0.726,4.949-2.042l1.516-1.515
		c0.939-0.939,2.195-1.457,3.535-1.457s2.596,0.518,3.535,1.458l1.516,1.514c1.317,1.317,3.075,2.043,4.949,2.043v-2
		c-1.34,0-2.596-0.518-3.535-1.458l-1.516-1.514c-1.317-1.317-3.075-2.043-4.949-2.043s-3.632,0.726-4.949,2.042l-1.516,1.515
		C32.596,25.99,31.34,26.507,30,26.507s-2.596-0.518-3.535-1.458l-1.516-1.514c-1.317-1.317-3.075-2.043-4.949-2.043
		s-3.632,0.726-4.949,2.042l-1.516,1.515C12.596,25.99,11.34,26.507,10,26.507V28.507z M50,43.513c-1.28,0-2.561-0.487-3.535-1.462
		l-1.516-1.516c-2.729-2.729-7.17-2.729-9.898,0l-1.516,1.516c-1.949,1.949-5.121,1.949-7.07,0l-1.516-1.516
		c-2.729-2.729-7.17-2.729-9.898,0l-1.516,1.516c-0.975,0.975-2.255,1.462-3.535,1.462v1.999c1.792,0,3.585-0.682,4.949-2.046
		l1.516-1.516c1.949-1.949,5.121-1.949,7.07,0l1.516,1.516c2.729,2.729,7.17,2.729,9.898,0l1.516-1.516
		c1.949-1.949,5.121-1.949,7.07,0l1.516,1.516c1.364,1.364,3.157,2.047,4.949,2.047V43.513z"/>
</g>
<g id="Layer_2" display="none">
	<path display="inline" fill="#FFFFFF" d="M61,60H50V0h11V60z M10,0H-1v60h11V0z"/>
</g>
</svg>
