<?xml version="1.0" encoding="utf-8"?>
<!-- Generator: Adobe Illustrator 18.1.0, SVG Export Plug-In . SVG Version: 6.00 Build 0)  -->
<!DOCTYPE svg PUBLIC "-//W3C//DTD SVG 1.1//EN" "http://www.w3.org/Graphics/SVG/1.1/DTD/svg11.dtd">
<svg version="1.1" xmlns="http://www.w3.org/2000/svg" xmlns:xlink="http://www.w3.org/1999/xlink" x="0px" y="0px"
	 viewBox="0 0 60 60" enable-background="new 0 0 60 60" xml:space="preserve">
<g id="V1_x5F_base" display="none">
	<polyline display="inline" fill="none" stroke="#000000" stroke-width="2" stroke-miterlimit="10" points="25,25 25,15 10,15 	"/>
	<polyline display="inline" fill="none" stroke="#000000" stroke-width="2" stroke-miterlimit="10" points="50,15 35,15 35,25 	"/>
	<g display="inline">
		<path fill="none" stroke="#808080" stroke-width="2" stroke-miterlimit="10" d="M60,20l-5.757,5.757
			c-2.333,2.333-6.152,2.333-8.485,0l-1.515-1.515c-2.333-2.333-6.152-2.333-8.485,0l-1.515,1.515c-2.333,2.333-6.152,2.333-8.485,0
			l-1.515-1.515c-2.333-2.333-6.152-2.333-8.485,0l-1.515,1.515c-2.333,2.333-6.152,2.333-8.485,0L0,20"/>
	</g>
	<g display="inline">
		<path fill="none" stroke="#808080" stroke-width="2" stroke-miterlimit="10" d="M60,28.5l-5.757,5.757
			c-2.333,2.333-6.152,2.333-8.485,0l-1.515-1.515c-2.333-2.333-6.152-2.333-8.485,0l-1.515,1.515c-2.333,2.333-6.152,2.333-8.485,0
			l-1.515-1.515c-2.333-2.333-6.152-2.333-8.485,0l-1.515,1.515c-2.333,2.333-6.152,2.333-8.485,0L0,28.5"/>
	</g>
	<g display="inline">
		<path fill="none" stroke="#808080" stroke-width="2" stroke-miterlimit="10" d="M60,37l-5.757,5.757
			c-2.333,2.333-6.152,2.333-8.485,0l-1.515-1.515c-2.333-2.333-6.152-2.333-8.485,0l-1.515,1.515c-2.333,2.333-6.152,2.333-8.485,0
			l-1.515-1.515c-2.333-2.333-6.152-2.333-8.485,0l-1.515,1.515c-2.333,2.333-6.152,2.333-8.485,0L0,37"/>
	</g>
</g>
<g id="V1_x5F_export" display="none">
	<path display="inline" d="M24,16H10v-2h16v10.585l-1.051-1.05c-0.295-0.295-0.614-0.555-0.949-0.789V16z M34,14v10.586l1.051-1.05
		c0.295-0.294,0.614-0.555,0.949-0.788V16h14v-2H34z"/>
	<path display="inline" fill="#808080" d="M14.949,34.965c-1.364,1.364-3.157,2.046-4.949,2.046v-1.999
		c1.28,0,2.561-0.487,3.535-1.462l1.516-1.516c2.729-2.729,7.17-2.729,9.898,0l1.516,1.516c1.949,1.949,5.121,1.949,7.07,0
		l1.516-1.516c2.729-2.729,7.17-2.729,9.898,0l1.516,1.516c0.975,0.975,2.255,1.462,3.535,1.462v1.999
		c-1.792,0-3.585-0.683-4.949-2.047l-1.516-1.516c-1.949-1.949-5.121-1.949-7.07,0l-1.516,1.516c-2.729,2.729-7.17,2.729-9.898,0
		l-1.516-1.516c-1.949-1.949-5.121-1.949-7.07,0L14.949,34.965z M10,28.507c1.874,0,3.632-0.726,4.949-2.042l1.516-1.515
		c0.939-0.939,2.195-1.457,3.535-1.457s2.596,0.518,3.535,1.458l1.516,1.514c1.317,1.317,3.075,2.043,4.949,2.043
		s3.632-0.726,4.949-2.042l1.516-1.515c0.939-0.939,2.195-1.457,3.535-1.457s2.596,0.518,3.535,1.458l1.516,1.514
		c1.317,1.317,3.075,2.043,4.949,2.043v-2c-1.34,0-2.596-0.518-3.535-1.458l-1.516-1.514c-1.317-1.317-3.075-2.043-4.949-2.043
		s-3.632,0.726-4.949,2.042l-1.516,1.515C32.596,25.99,31.34,26.507,30,26.507s-2.596-0.518-3.535-1.458l-1.516-1.514
		c-1.317-1.317-3.075-2.043-4.949-2.043s-3.632,0.726-4.949,2.042l-1.516,1.515C12.596,25.99,11.34,26.507,10,26.507V28.507z
		 M50,43.513c-1.28,0-2.561-0.487-3.535-1.462l-1.516-1.516c-2.729-2.729-7.17-2.729-9.898,0l-1.516,1.516
		c-1.949,1.949-5.121,1.949-7.07,0l-1.516-1.516c-2.729-2.729-7.17-2.729-9.898,0l-1.516,1.516
		c-0.975,0.975-2.255,1.462-3.535,1.462v1.999c1.792,0,3.585-0.682,4.949-2.046l1.516-1.516c1.949-1.949,5.121-1.949,7.07,0
		l1.516,1.516c2.729,2.729,7.17,2.729,9.898,0l1.516-1.516c1.949-1.949,5.121-1.949,7.07,0l1.516,1.516
		c1.364,1.364,3.157,2.047,4.949,2.047V43.513z"/>
</g>
<g id="V2_x5F_base" display="none">
	<polyline display="inline" fill="none" stroke="#000000" stroke-width="4" stroke-miterlimit="10" points="25,25 25,15 10,15 	"/>
	<polyline display="inline" fill="none" stroke="#000000" stroke-width="4" stroke-miterlimit="10" points="50,15 35,15 35,25 	"/>
	<g display="inline">
		<path fill="none" stroke="#808080" stroke-width="4" stroke-miterlimit="10" d="M60,47l-5.757-5.757
			c-2.333-2.333-6.152-2.333-8.485,0l-1.515,1.515c-2.333,2.333-6.152,2.333-8.485,0l-1.515-1.515c-2.333-2.333-6.152-2.333-8.485,0
			l-1.515,1.515c-2.333,2.333-6.152,2.333-8.485,0l-1.515-1.515c-2.333-2.333-6.152-2.333-8.485,0L0,47"/>
	</g>
	<g display="inline">
		<path fill="none" stroke="#808080" stroke-width="4" stroke-miterlimit="10" d="M60,38.5l-5.757-5.757
			c-2.333-2.333-6.152-2.333-8.485,0l-1.515,1.515c-2.333,2.333-6.152,2.333-8.485,0l-1.515-1.515c-2.333-2.333-6.152-2.333-8.485,0
			l-1.515,1.515c-2.333,2.333-6.152,2.333-8.485,0l-1.515-1.515c-2.333-2.333-6.152-2.333-8.485,0L0,38.5"/>
	</g>
	<g display="inline">
		<path fill="none" stroke="#808080" stroke-width="4" stroke-miterlimit="10" d="M60,30l-5.757-5.757
			c-2.333-2.333-6.152-2.333-8.485,0l-1.515,1.515c-2.333,2.333-6.152,2.333-8.485,0l-1.515-1.515c-2.333-2.333-6.152-2.333-8.485,0
			l-1.515,1.515c-2.333,2.333-6.152,2.333-8.485,0l-1.515-1.515c-2.333-2.333-6.152-2.333-8.485,0L0,30"/>
	</g>
	<rect x="50" y="8.5" display="inline" fill="#FFFFFF" width="16.5" height="43.5"/>
	<rect x="-6.5" y="8.5" display="inline" fill="#FFFFFF" width="16.5" height="43.5"/>
</g>
<g id="V2_x5F_export">
	<g>
		<path d="M10,17v-4h17v8.072c-0.984,0.396-1.886,0.986-2.656,1.756L23,24.171V17H10z M37,24.171V17h13v-4H33v8.072
			c0.984,0.396,1.886,0.986,2.656,1.757L37,24.171z"/>
		<path fill="#808080" d="M44.344,39.828c1.56-1.56,3.608-2.339,5.656-2.339v4.003c-1.073,0-2.077,0.414-2.828,1.164l-1.516,1.516
			c-3.119,3.119-8.193,3.119-11.312,0l-1.516-1.516c-1.561-1.559-4.096-1.559-5.656,0l-1.516,1.516
			c-3.119,3.119-8.193,3.119-11.312,0l-1.516-1.516c-0.751-0.75-1.755-1.164-2.828-1.164v-4.003c2.048,0,4.097,0.78,5.656,2.339
			l1.516,1.516c1.561,1.559,4.096,1.559,5.656,0l1.516-1.516c3.119-3.119,8.193-3.119,11.312,0l1.516,1.516
			c1.561,1.559,4.096,1.559,5.656,0L44.344,39.828z M42.828,32.844c-1.561,1.559-4.096,1.559-5.656,0l-1.516-1.516
			c-3.119-3.119-8.193-3.119-11.312,0l-1.516,1.516c-1.561,1.559-4.096,1.559-5.656,0l-1.516-1.516
			c-1.56-1.56-3.608-2.339-5.656-2.339v4.003c1.073,0,2.077,0.414,2.828,1.164l1.516,1.516c3.119,3.119,8.193,3.119,11.312,0
			l1.516-1.516c1.561-1.559,4.096-1.559,5.656,0l1.516,1.516c3.119,3.119,8.193,3.119,11.312,0l1.516-1.516
			c0.751-0.75,1.755-1.164,2.828-1.164v-4.003c-2.048,0-4.097,0.78-5.656,2.339L42.828,32.844z M44.344,22.828l-1.516,1.515
			c-0.751,0.751-1.755,1.164-2.828,1.164s-2.077-0.413-2.828-1.165L37,24.171l-1.344-1.342c-0.77-0.77-1.673-1.361-2.656-1.757
			c-0.94-0.378-1.953-0.579-3-0.579s-2.06,0.201-3,0.579c-0.984,0.396-1.886,0.986-2.656,1.756L23,24.171l-0.172,0.172
			c-0.751,0.751-1.755,1.164-2.828,1.164s-2.077-0.413-2.828-1.165l-1.516-1.514c-1.506-1.506-3.515-2.336-5.656-2.336v4
			c1.073,0,2.077,0.413,2.828,1.165l1.516,1.514c1.506,1.506,3.515,2.336,5.656,2.336s4.15-0.83,5.656-2.335l1.516-1.515
			c0.751-0.751,1.755-1.164,2.828-1.164s2.077,0.413,2.828,1.165l1.516,1.514c1.506,1.506,3.515,2.336,5.656,2.336
			s4.15-0.83,5.656-2.335l1.516-1.515c0.751-0.751,1.755-1.164,2.828-1.164v-4C47.858,20.493,45.85,21.322,44.344,22.828z"/>
	</g>
</g>
<g id="labels">
</g>
<g id="Layer_2" display="none">
	<path display="inline" fill="#FFFFFF" d="M61,60H50V0h11V60z M10,0H-1v60h11V0z"/>
</g>
</svg>
