<?xml version="1.0" encoding="utf-8"?>
<!-- Generator: Adobe Illustrator 18.1.0, SVG Export Plug-In . SVG Version: 6.00 Build 0)  -->
<!DOCTYPE svg PUBLIC "-//W3C//DTD SVG 1.1//EN" "http://www.w3.org/Graphics/SVG/1.1/DTD/svg11.dtd">
<svg version="1.1" xmlns="http://www.w3.org/2000/svg" xmlns:xlink="http://www.w3.org/1999/xlink" x="0px" y="0px"
	 viewBox="0 0 60 60" enable-background="new 0 0 60 60" xml:space="preserve">
<g id="V2_x5F_export">
	<g>
		<path fill="#808080" d="M33.98,38.835v-0.249c0-1.099,0.891-1.99,1.99-1.99s1.99,0.891,1.99,1.99v0.249
			c0,1.099-0.891,1.99-1.99,1.99S33.98,39.934,33.98,38.835z"/>
		<path fill="#808080" d="M33.98,44.748v-0.249c0-1.099,0.891-1.99,1.99-1.99s1.99,0.891,1.99,1.99v0.249
			c0,1.099-0.891,1.99-1.99,1.99S33.98,45.847,33.98,44.748z"/>
		<path fill="#808080" d="M35.969,34.913c1.099,0,1.99-0.891,1.99-1.99v-0.249c0-1.099-0.891-1.99-1.99-1.99s-1.99,0.891-1.99,1.99
			v0.249C33.98,34.022,34.87,34.913,35.969,34.913z"/>
		<path d="M31.99,19.055V16.98h3.98V13H24.031v3.98h3.98v2.076c-2.671,0.292-5.969,1.637-5.969,7.873v17.084L26.02,47V26.928
			c0-3.827,1.148-3.98,3.98-3.98s3.98,0.153,3.98,3.98v1.99h3.98v-1.99C37.959,20.692,34.661,19.347,31.99,19.055z"/>
	</g>
</g>
</svg>
