<?xml version="1.0" encoding="utf-8"?>
<!-- Generator: Adobe Illustrator 18.1.0, SVG Export Plug-In . SVG Version: 6.00 Build 0)  -->
<!DOCTYPE svg PUBLIC "-//W3C//DTD SVG 1.1//EN" "http://www.w3.org/Graphics/SVG/1.1/DTD/svg11.dtd">
<svg version="1.1" xmlns="http://www.w3.org/2000/svg" xmlns:xlink="http://www.w3.org/1999/xlink" x="0px" y="0px"
	 viewBox="0 0 60 60" enable-background="new 0 0 60 60" xml:space="preserve">
<g id="V1_x5F_base" display="none">
	<g display="inline">
		<g>
			<path fill="#FFFFFF" stroke="#808080" stroke-width="2" stroke-miterlimit="10" d="M25.25,20.5c0-3.038,2.462-5.5,5.5-5.5
				c1.898,0,3.572,0.962,4.561,2.425"/>
			<path fill="none" stroke="#808080" stroke-width="2" stroke-miterlimit="10" d="M33.25,21c0-2.209,1.791-4,4-4s4,1.791,4,4"/>
		</g>
		<line fill="none" stroke="#000000" stroke-width="2" stroke-miterlimit="10" x1="21.75" y1="21" x2="44.75" y2="21"/>
		<line fill="none" stroke="#000000" stroke-width="2" stroke-miterlimit="10" x1="22.787" y1="29" x2="43.713" y2="29"/>
		<line fill="none" stroke="#000000" stroke-width="2" stroke-miterlimit="10" x1="23.75" y1="37" x2="42.75" y2="37"/>
		<polyline fill="none" stroke="#000000" stroke-width="2" stroke-miterlimit="10" points="45.75,18 40.75,45 25.75,45 20.75,18 		
			"/>
		<circle fill="#FFFFFF" stroke="#808080" stroke-width="2" stroke-miterlimit="10" cx="25.25" cy="39.5" r="5.5"/>
		<circle fill="#FFFFFF" stroke="#808080" stroke-width="2" stroke-miterlimit="10" cx="18.25" cy="41" r="4"/>
	</g>
</g>
<g id="V1_x5F_export" display="none">
	<g display="inline">
		<polygon fill="none" points="23.619,28 42.881,28 43.992,22 22.508,22 		"/>
		<path fill="none" d="M37.25,18c-1.302,0-2.402,0.839-2.816,2h5.631C39.652,18.839,38.552,18,37.25,18z"/>
		<path fill="none" d="M24.552,33.039C24.782,33.014,25.014,33,25.25,33c2.295,0,4.312,1.199,5.468,3h10.681l1.111-6H23.989
			L24.552,33.039z"/>
		<path fill="none" d="M26.886,20h5.465c0.146-0.716,0.456-1.368,0.873-1.937L26.886,20z"/>
		<path fill="none" d="M31.75,39.5c0,1.746-0.696,3.331-1.821,4.5h9.989l1.111-6h-9.461C31.683,38.482,31.75,38.983,31.75,39.5z"/>
		<g>
			<path d="M44.767,17.818L44.362,20h-2.214h-2.083h-5.631h-2.083h-5.465h-0.585h-1.025h-1h-2.138l-0.404-2.182l-1.967,0.364
				l2.848,15.381c0.604-0.269,1.254-0.451,1.937-0.525L23.989,30h18.521l-1.111,6H30.718c0.389,0.606,0.679,1.28,0.85,2h9.461
				l-1.111,6h-9.989c-1.183,1.23-2.842,2-4.679,2h16.332l5.151-27.818L44.767,17.818z M42.881,28H23.619l-1.111-6h21.484L42.881,28z
				"/>
			<path d="M24.918,46h0.332c-0.113,0-0.223-0.011-0.335-0.017L24.918,46z"/>
		</g>
		<path fill="#808080" d="M42.149,20h-2.083c-0.414-1.161-1.514-2-2.816-2s-2.402,0.839-2.816,2h-2.083
			c0.146-0.716,0.456-1.368,0.873-1.937c0.202-0.276,0.432-0.527,0.686-0.756C33.075,16.481,31.948,16,30.75,16
			c-2.31,0-4.197,1.756-4.449,4h-1.025h-1c0.257-3.351,3.059-6,6.475-6c1.912,0,3.707,0.84,4.936,2.275
			C36.181,16.111,36.7,16,37.25,16C39.664,16,41.684,17.721,42.149,20z M31.568,38c0.115,0.482,0.182,0.983,0.182,1.5
			c0,1.746-0.696,3.331-1.821,4.5c-1.183,1.23-2.842,2-4.679,2c-0.113,0-0.223-0.011-0.335-0.017
			c-1.277-0.066-2.456-0.498-3.435-1.198C20.606,45.532,19.487,46,18.25,46c-2.757,0-5-2.243-5-5s2.243-5,5-5
			c0.488,0,0.95,0.092,1.396,0.223c0.686-1.168,1.723-2.104,2.969-2.659c0.604-0.269,1.254-0.451,1.937-0.525
			C24.782,33.014,25.014,33,25.25,33c2.295,0,4.312,1.199,5.468,3C31.108,36.606,31.397,37.28,31.568,38z M29.75,39.5
			c0-0.529-0.108-1.029-0.276-1.5c-0.284-0.796-0.782-1.482-1.43-2c-0.77-0.616-1.733-1-2.794-1c-0.112,0-0.218,0.025-0.328,0.033
			c-0.699,0.052-1.35,0.259-1.924,0.594c-0.645,0.377-1.186,0.902-1.576,1.539c1.107,0.918,1.829,2.286,1.829,3.833
			c0,0.797-0.205,1.541-0.538,2.211c0.535,0.367,1.156,0.609,1.823,0.717C24.769,43.966,25.005,44,25.25,44
			c0.452,0,0.881-0.087,1.293-0.212C28.392,43.229,29.75,41.529,29.75,39.5z M20.749,42.655c0.238-0.359,0.391-0.774,0.457-1.218
			C21.227,41.293,21.25,41.15,21.25,41c0-0.601-0.182-1.159-0.487-1.628c-0.236-0.363-0.548-0.668-0.913-0.9
			c-0.285-0.181-0.6-0.316-0.938-0.392C18.698,38.031,18.478,38,18.25,38c-1.654,0-3,1.346-3,3s1.346,3,3,3
			c0.678,0,1.298-0.235,1.801-0.616C20.321,43.18,20.561,42.937,20.749,42.655z"/>
	</g>
</g>
<g id="V2_x5F_base" display="none">
	<g display="inline">
		<g>
			<path fill="#FFFFFF" stroke="#808080" stroke-width="4" stroke-miterlimit="10" d="M22.874,19.45
				c0-2.706,2.194-4.899,4.899-4.899c1.691,0,3.182,0.857,4.063,2.16"/>
			<path fill="none" stroke="#808080" stroke-width="4" stroke-miterlimit="10" d="M30,19.45c0-1.968,1.595-3.563,3.563-3.563
				s3.563,1.595,3.563,3.563"/>
		</g>
		<line fill="none" stroke="#000000" stroke-width="4" stroke-miterlimit="10" x1="18.5" y1="21.45" x2="41.5" y2="21.45"/>
		<line fill="none" stroke="#000000" stroke-width="4" stroke-miterlimit="10" x1="19.537" y1="29.45" x2="40.463" y2="29.45"/>
		<line fill="none" stroke="#000000" stroke-width="4" stroke-miterlimit="10" x1="20.5" y1="37.45" x2="39.5" y2="37.45"/>
		<polyline fill="none" stroke="#000000" stroke-width="4" stroke-miterlimit="10" points="42.5,18.45 37.5,45.45 22.5,45.45 
			17.5,18.45 		"/>
	</g>
</g>
<g id="V2_x5F_export">
	<path d="M33.563,13.887c-0.508,0-0.998,0.074-1.466,0.202c-1.211-0.977-2.726-1.539-4.324-1.539c-3.805,0-6.899,3.095-6.899,6.899
		h4c0-1.599,1.301-2.899,2.899-2.899c0.328,0,0.641,0.074,0.943,0.178C28.262,17.534,28,18.461,28,19.45h4
		c0-0.862,0.701-1.563,1.563-1.563c0.861,0,1.562,0.701,1.562,1.563h4C39.126,16.382,36.631,13.887,33.563,13.887z"/>
	<path fill="#808080" d="M40.533,18.085l-0.253,1.364H19.719l-0.253-1.364l-3.934,0.729l5.303,28.635h18.328l5.303-28.635
		L40.533,18.085z M39.54,23.45l-0.741,4H21.201l-0.741-4H39.54z M21.942,31.449h16.117l-0.741,4H22.682L21.942,31.449z
		 M24.164,43.449l-0.741-4h13.153l-0.741,4H24.164z"/>
</g>
<g id="labels">
</g>
<g id="Layer_2" display="none">
</g>
</svg>
