<?xml version="1.0" encoding="utf-8"?>
<!-- Generator: Adobe Illustrator 18.1.0, SVG Export Plug-In . SVG Version: 6.00 Build 0)  -->
<!DOCTYPE svg PUBLIC "-//W3C//DTD SVG 1.1//EN" "http://www.w3.org/Graphics/SVG/1.1/DTD/svg11.dtd">
<svg version="1.1" xmlns="http://www.w3.org/2000/svg" xmlns:xlink="http://www.w3.org/1999/xlink" x="0px" y="0px"
	 viewBox="0 0 60 60" enable-background="new 0 0 60 60" xml:space="preserve">
<g id="base" display="none">
	
		<rect x="26" y="13" display="inline" fill="none" stroke="#808080" stroke-width="2" stroke-miterlimit="10" width="7" height="14"/>
	<polyline display="inline" fill="none" stroke="#808080" stroke-width="2" stroke-miterlimit="10" points="36,27 36,13 43,13 
		43,47 	"/>
	<polyline display="inline" fill="none" stroke="#000000" stroke-width="2" stroke-miterlimit="10" points="39,47 39,27 32,27 
		22,27 15,27 15,47 	"/>
	<line display="inline" fill="none" stroke="#808080" stroke-width="2" stroke-miterlimit="10" x1="19" y1="31" x2="19" y2="36"/>
	<line display="inline" fill="none" stroke="#808080" stroke-width="2" stroke-miterlimit="10" x1="19" y1="39" x2="19" y2="44"/>
	<line display="inline" fill="none" stroke="#808080" stroke-width="2" stroke-miterlimit="10" x1="23" y1="31" x2="23" y2="36"/>
	<line display="inline" fill="none" stroke="#808080" stroke-width="2" stroke-miterlimit="10" x1="23" y1="39" x2="23" y2="44"/>
	<line display="inline" fill="none" stroke="#808080" stroke-width="2" stroke-miterlimit="10" x1="27" y1="31" x2="27" y2="36"/>
	<line display="inline" fill="none" stroke="#808080" stroke-width="2" stroke-miterlimit="10" x1="27" y1="39" x2="27" y2="44"/>
	<line display="inline" fill="none" stroke="#808080" stroke-width="2" stroke-miterlimit="10" x1="31" y1="31" x2="31" y2="36"/>
	<line display="inline" fill="none" stroke="#808080" stroke-width="2" stroke-miterlimit="10" x1="31" y1="39" x2="31" y2="44"/>
	<line display="inline" fill="none" stroke="#808080" stroke-width="2" stroke-miterlimit="10" x1="35" y1="31" x2="35" y2="36"/>
	<line display="inline" fill="none" stroke="#808080" stroke-width="2" stroke-miterlimit="10" x1="35" y1="39" x2="35" y2="44"/>
	<line display="inline" fill="none" stroke="#000000" stroke-width="2" stroke-miterlimit="10" x1="10" y1="47" x2="50" y2="47"/>
</g>
<g id="export">
	<g>
		<polygon fill="none" points="37,14 37,26 40,26 40,46 42,46 42,14 		"/>
		<rect x="27" y="14" fill="none" width="5" height="12"/>
		<path fill="none" d="M34,28h-9h-9v18h22V28H34z M20,44h-2v-5h2V44z M20,36h-2v-5h2V36z M24,44h-2v-5h2V44z M24,36h-2v-5h2V36z
			 M28,44h-2v-5h2V44z M28,36h-2v-5h2V36z M32,44h-2v-5h2V44z M32,36h-2v-5h2V36z M36,44h-2v-5h2V44z M34,36v-5h2v5H34z"/>
		<path fill="#808080" d="M32,26V14h-5v12h-2V12h9v14H32z M35,12v14h2V14h5v32h2V12H35z M18,36h2v-5h-2V36z M18,44h2v-5h-2V44z
			 M22,36h2v-5h-2V36z M22,44h2v-5h-2V44z M26,36h2v-5h-2V36z M26,44h2v-5h-2V44z M30,36h2v-5h-2V36z M30,44h2v-5h-2V44z M34,36h2
			v-5h-2V36z M34,44h2v-5h-2V44z"/>
		<path d="M44,46h-2h-2V26h-3h-2h-1h-2h-5h-2H14v20h-4v2h40v-2H44z M16,28h9h9h4v18H16V28z"/>
	</g>
</g>
<g id="Layer_2" display="none">
</g>
</svg>
