<?xml version="1.0" encoding="utf-8"?>
<!-- Generator: Adobe Illustrator 18.1.0, SVG Export Plug-In . SVG Version: 6.00 Build 0)  -->
<!DOCTYPE svg PUBLIC "-//W3C//DTD SVG 1.1//EN" "http://www.w3.org/Graphics/SVG/1.1/DTD/svg11.dtd">
<svg version="1.1" xmlns="http://www.w3.org/2000/svg" xmlns:xlink="http://www.w3.org/1999/xlink" x="0px" y="0px"
	 viewBox="0 0 60 60" enable-background="new 0 0 60 60" xml:space="preserve">
<g id="base" display="none">
	<polyline display="inline" fill="none" stroke="#000000" stroke-width="2" stroke-miterlimit="10" points="26,35 26,23.5 8,23.5 	
		"/>
	<polyline display="inline" fill="none" stroke="#000000" stroke-width="2" stroke-miterlimit="10" points="34,35 34,23.5 52,23.5 	
		"/>
	<g display="inline">
		<g>
			
				<line fill="none" stroke="#808080" stroke-width="2" stroke-linecap="round" stroke-miterlimit="10" x1="30" y1="24" x2="30" y2="24.125"/>
			
				<line fill="none" stroke="#808080" stroke-width="2" stroke-linecap="round" stroke-miterlimit="10" stroke-dasharray="0.2303,2.7632" x1="30" y1="26.888" x2="30" y2="31.493"/>
			
				<line fill="none" stroke="#808080" stroke-width="2" stroke-linecap="round" stroke-miterlimit="10" x1="30" y1="32.875" x2="30" y2="33"/>
		</g>
	</g>
	<g display="inline">
		<path fill="none" stroke="#808080" stroke-width="2" stroke-miterlimit="10" d="M60,28.5l-5.757,5.757
			c-2.333,2.333-6.152,2.333-8.485,0l-1.515-1.515c-2.333-2.333-6.152-2.333-8.485,0l-1.515,1.515c-2.333,2.333-6.152,2.333-8.485,0
			l-1.515-1.515c-2.333-2.333-6.152-2.333-8.485,0l-1.515,1.515c-2.333,2.333-6.152,2.333-8.485,0L0,28.5"/>
	</g>
	<g display="inline">
		<path fill="none" stroke="#808080" stroke-width="2" stroke-miterlimit="10" d="M60,37l-5.757,5.757
			c-2.333,2.333-6.152,2.333-8.485,0l-1.515-1.515c-2.333-2.333-6.152-2.333-8.485,0l-1.515,1.515c-2.333,2.333-6.152,2.333-8.485,0
			l-1.515-1.515c-2.333-2.333-6.152-2.333-8.485,0l-1.515,1.515c-2.333,2.333-6.152,2.333-8.485,0L0,37"/>
	</g>
	<polyline display="inline" fill="none" stroke="#000000" stroke-width="2" stroke-miterlimit="10" points="42,24 42,12 35,12 
		25,12 18,12 18,24 	"/>
	<g display="inline">
		<line fill="none" stroke="#808080" stroke-width="2" stroke-miterlimit="10" x1="22" y1="15.5" x2="22" y2="20.5"/>
		<line fill="none" stroke="#808080" stroke-width="2" stroke-miterlimit="10" x1="26" y1="15.5" x2="26" y2="20.5"/>
		<line fill="none" stroke="#808080" stroke-width="2" stroke-miterlimit="10" x1="30" y1="15.5" x2="30" y2="20.5"/>
		<line fill="none" stroke="#808080" stroke-width="2" stroke-miterlimit="10" x1="34" y1="15.5" x2="34" y2="20.5"/>
		<line fill="none" stroke="#808080" stroke-width="2" stroke-miterlimit="10" x1="38" y1="15.5" x2="38" y2="20.5"/>
	</g>
</g>
<g id="export">
	<g>
		<path d="M25,34.915V35h0.089c-0.013-0.012-0.026-0.023-0.039-0.035L25,34.915z M34.911,35H35v-0.085l-0.05,0.05
			C34.938,34.977,34.924,34.988,34.911,35z M43,22.5V11H17v11.5h-7v2h15v7.585l1.465,1.465c0.166,0.167,0.352,0.299,0.535,0.437
			V22.5h-8V13h22v9.5h-8v11.488c0.183-0.138,0.369-0.271,0.536-0.437L35,32.085V24.5h15v-2H43z M30,25.125c0.552,0,1-0.448,1-1V24
			c0-0.552-0.448-1-1-1s-1,0.448-1,1v0.125C29,24.677,29.448,25.125,30,25.125z M29,28.365v-0.23c0-0.552,0.448-1,1-1s1,0.448,1,1
			v0.23c0,0.552-0.448,1-1,1S29,28.918,29,28.365z M29,32.5v-0.125c0-0.553,0.448-1,1-1s1,0.447,1,1V32.5c0,0.553-0.448,1-1,1
			S29,33.053,29,32.5z"/>
		<path fill="#808080" d="M46.465,33.551l-1.515-1.516c-2.729-2.729-7.17-2.729-9.9,0L35,32.085l-1.464,1.466
			c-0.167,0.167-0.353,0.299-0.536,0.437c-1.775,1.34-4.226,1.34-6,0c-0.183-0.138-0.369-0.271-0.535-0.437L25,32.085l-0.05-0.05
			c-2.729-2.729-7.17-2.729-9.9,0l-1.514,1.516c-0.975,0.974-2.255,1.462-3.536,1.462v1.999c1.793,0,3.585-0.682,4.95-2.046
			l1.514-1.516c1.95-1.949,5.123-1.949,7.071,0L25,34.915l0.05,0.05c0.013,0.013,0.026,0.023,0.039,0.035
			c2.72,2.679,7.102,2.679,9.822,0c0.013-0.012,0.026-0.023,0.039-0.035l0.05-0.05l1.464-1.466c1.95-1.949,5.123-1.949,7.071,0
			l1.515,1.516c1.365,1.364,3.157,2.047,4.95,2.047v-1.999C48.719,35.013,47.439,34.526,46.465,33.551z M44.95,40.535
			c-2.729-2.729-7.17-2.729-9.9,0l-1.514,1.516c-1.95,1.949-5.123,1.949-7.071,0l-1.515-1.516c-2.729-2.729-7.17-2.729-9.9,0
			l-1.514,1.516c-0.975,0.974-2.255,1.462-3.536,1.462v1.999c1.793,0,3.585-0.682,4.95-2.046l1.514-1.516
			c1.95-1.949,5.123-1.949,7.071,0l1.515,1.516c2.729,2.729,7.17,2.729,9.9,0l1.514-1.516c1.95-1.949,5.123-1.949,7.071,0
			l1.515,1.516c1.365,1.364,3.157,2.047,4.95,2.047v-1.999c-1.281,0-2.561-0.487-3.535-1.462L44.95,40.535z M23,15.5h-2v5h2V15.5z
			 M27,15.5h-2v5h2V15.5z M31,15.5h-2v5h2V15.5z M35,15.5h-2v5h2V15.5z M39,15.5h-2v5h2V15.5z"/>
	</g>
</g>
<g id="Layer_2" display="none">
	<path display="inline" fill="#FFFFFF" d="M61,60H50V0h11V60z M10,0H-1v60h11V0z"/>
</g>
</svg>
