<?xml-stylesheet type="text/css" href="svg.css" ?>
<svg version="1.1" xmlns="http://www.w3.org/2000/svg" xmlns:xlink="http://www.w3.org/1999/xlink" x="0px" y="0px"
	 viewBox="0 0 60 60" enable-background="new 0 0 60 60" xml:space="preserve">
<g id="i-drainasi">
	<g>
		<path class="primary" d="M10,17v-4h17v8.072c-0.984,0.396-1.886,0.986-2.656,1.756L23,24.171V17H10z M37,24.171V17h13v-4H33v8.072
			c0.984,0.396,1.886,0.986,2.656,1.757L37,24.171z"/>
		<path class="secondary" d="M44.344,39.828c1.56-1.56,3.608-2.339,5.656-2.339v4.003c-1.073,0-2.077,0.414-2.828,1.164l-1.516,1.516
			c-3.119,3.119-8.193,3.119-11.312,0l-1.516-1.516c-1.561-1.559-4.096-1.559-5.656,0l-1.516,1.516
			c-3.119,3.119-8.193,3.119-11.312,0l-1.516-1.516c-0.751-0.75-1.755-1.164-2.828-1.164v-4.003c2.048,0,4.097,0.78,5.656,2.339
			l1.516,1.516c1.561,1.559,4.096,1.559,5.656,0l1.516-1.516c3.119-3.119,8.193-3.119,11.312,0l1.516,1.516
			c1.561,1.559,4.096,1.559,5.656,0L44.344,39.828z M42.828,32.844c-1.561,1.559-4.096,1.559-5.656,0l-1.516-1.516
			c-3.119-3.119-8.193-3.119-11.312,0l-1.516,1.516c-1.561,1.559-4.096,1.559-5.656,0l-1.516-1.516
			c-1.56-1.56-3.608-2.339-5.656-2.339v4.003c1.073,0,2.077,0.414,2.828,1.164l1.516,1.516c3.119,3.119,8.193,3.119,11.312,0
			l1.516-1.516c1.561-1.559,4.096-1.559,5.656,0l1.516,1.516c3.119,3.119,8.193,3.119,11.312,0l1.516-1.516
			c0.751-0.75,1.755-1.164,2.828-1.164v-4.003c-2.048,0-4.097,0.78-5.656,2.339L42.828,32.844z M44.344,22.828l-1.516,1.515
			c-0.751,0.751-1.755,1.164-2.828,1.164s-2.077-0.413-2.828-1.165L37,24.171l-1.344-1.342c-0.77-0.77-1.673-1.361-2.656-1.757
			c-0.94-0.378-1.953-0.579-3-0.579s-2.06,0.201-3,0.579c-0.984,0.396-1.886,0.986-2.656,1.756L23,24.171l-0.172,0.172
			c-0.751,0.751-1.755,1.164-2.828,1.164s-2.077-0.413-2.828-1.165l-1.516-1.514c-1.506-1.506-3.515-2.336-5.656-2.336v4
			c1.073,0,2.077,0.413,2.828,1.165l1.516,1.514c1.506,1.506,3.515,2.336,5.656,2.336s4.15-0.83,5.656-2.335l1.516-1.515
			c0.751-0.751,1.755-1.164,2.828-1.164s2.077,0.413,2.828,1.165l1.516,1.514c1.506,1.506,3.515,2.336,5.656,2.336
			s4.15-0.83,5.656-2.335l1.516-1.515c0.751-0.751,1.755-1.164,2.828-1.164v-4C47.858,20.493,45.85,21.322,44.344,22.828z"/>
	</g>
</g>
</svg>
